<svg xmlns="http://www.w3.org/2000/svg" xmlns:xlink="http://www.w3.org/1999/xlink" width="476" zoomAndPan="magnify" viewBox="0 0 357 345.749992" height="461" preserveAspectRatio="xMidYMid meet" version="1.2"><defs><clipPath id="9b6667aad5"><path d="M 11 0 L 356.871094 0 L 356.871094 344.75 L 11 344.75 Z M 11 0 "/></clipPath><clipPath id="cf6302b723"><path d="M 0.128906 161 L 6 161 L 6 207 L 0.128906 207 Z M 0.128906 161 "/></clipPath><clipPath id="2d71e1940f"><path d="M 82.632812 49.675781 L 290.957031 49.675781 L 290.957031 289.320312 L 82.632812 289.320312 Z M 82.632812 49.675781 "/></clipPath></defs><g id="dce9a373c7"><g clip-rule="nonzero" clip-path="url(#9b6667aad5)"><path style=" stroke:none;fill-rule:nonzero;fill:#a6a6a6;fill-opacity:1;" d="M 355.25 160.222656 C 354.089844 150.816406 351.980469 142.5625 349.265625 134.460938 C 348.699219 132.933594 348.144531 131.410156 347.582031 129.878906 C 347.304688 129.113281 347.011719 128.34375 346.726562 127.566406 C 346.414062 126.796875 346.09375 126.023438 345.757812 125.230469 C 345.351562 124.183594 344.917969 123.140625 344.496094 122.09375 L 343.867188 120.527344 C 343.65625 120 343.40625 119.5 343.171875 118.988281 C 342.214844 116.933594 341.304688 114.867188 340.328125 112.828125 C 339.285156 110.820312 338.246094 108.808594 337.207031 106.792969 C 336.957031 106.289062 336.679688 105.789062 336.394531 105.3125 L 335.539062 103.835938 L 333.828125 100.890625 C 333.570312 100.429688 333.308594 99.972656 333.035156 99.515625 C 333.027344 99.503906 333.023438 99.480469 333.007812 99.464844 C 332.980469 99.410156 332.957031 99.367188 332.929688 99.316406 C 331.953125 97.234375 330.996094 95.140625 330 93.066406 C 328.929688 91.027344 327.855469 88.984375 326.792969 86.945312 C 326.542969 86.425781 326.257812 85.925781 325.957031 85.425781 L 325.089844 83.9375 L 323.359375 80.949219 C 323.085938 80.480469 322.824219 80.015625 322.546875 79.554688 C 322.273438 79.089844 321.976562 78.648438 321.691406 78.199219 C 321.113281 77.308594 320.535156 76.433594 319.957031 75.554688 C 319.386719 74.6875 318.808594 73.816406 318.242188 72.953125 C 317.65625 72.105469 317.027344 71.292969 316.429688 70.46875 C 315.816406 69.648438 315.21875 68.835938 314.605469 68.03125 C 314 67.230469 313.4375 66.40625 312.773438 65.648438 C 311.484375 64.109375 310.214844 62.59375 308.953125 61.089844 C 308.339844 60.324219 307.65625 59.605469 306.992188 58.894531 C 306.332031 58.171875 305.667969 57.46875 305.003906 56.746094 L 303.015625 54.617188 C 302.339844 53.925781 301.628906 53.253906 300.9375 52.578125 C 299.539062 51.230469 298.171875 49.847656 296.746094 48.539062 C 295.292969 47.246094 293.832031 45.949219 292.363281 44.644531 C 292.027344 44.339844 291.683594 44.035156 291.34375 43.726562 C 290.980469 43.425781 290.617188 43.128906 290.253906 42.828125 C 289.53125 42.222656 288.792969 41.609375 288.066406 40.988281 C 287.316406 40.363281 286.574219 39.734375 285.828125 39.101562 L 285.257812 38.625 L 284.671875 38.175781 C 284.289062 37.867188 283.882812 37.570312 283.503906 37.253906 C 281.921875 36.035156 280.347656 34.78125 278.757812 33.570312 C 277.125 32.421875 275.484375 31.269531 273.890625 30.144531 C 272.777344 29.1875 271.558594 28.316406 270.320312 27.414062 C 269.0625 26.515625 267.78125 25.601562 266.492188 24.667969 C 265.160156 23.785156 263.777344 22.9375 262.386719 22.054688 C 261.003906 21.191406 259.613281 20.257812 258.132812 19.480469 C 256.671875 18.660156 255.210938 17.847656 253.726562 17.027344 L 252.621094 16.417969 C 252.238281 16.222656 251.851562 16.039062 251.488281 15.851562 L 249.214844 14.726562 C 248.453125 14.355469 247.703125 13.984375 246.933594 13.609375 C 246.179688 13.246094 245.453125 12.839844 244.667969 12.523438 C 243.136719 11.847656 241.605469 11.183594 240.109375 10.53125 C 239.308594 10.1875 238.503906 9.816406 237.675781 9.480469 C 236.863281 9.167969 236.03125 8.855469 235.183594 8.542969 C 233.523438 7.921875 231.832031 7.292969 230.121094 6.695312 C 228.390625 6.167969 226.652344 5.648438 224.914062 5.121094 C 224.027344 4.863281 223.152344 4.601562 222.261719 4.359375 C 221.390625 4.144531 220.488281 3.9375 219.589844 3.730469 C 217.808594 3.324219 216.011719 2.902344 214.214844 2.53125 C 212.40625 2.234375 210.582031 1.941406 208.769531 1.664062 C 207.859375 1.519531 206.953125 1.378906 206.046875 1.265625 C 205.136719 1.179688 204.222656 1.101562 203.304688 1.015625 C 201.5 0.859375 199.675781 0.722656 197.878906 0.59375 C 195.890625 0.550781 193.847656 0.472656 191.75 0.375 C 191.214844 0.34375 190.6875 0.316406 190.167969 0.289062 L 189.378906 0.238281 L 188.609375 0.230469 C 187.589844 0.214844 186.554688 0.195312 185.523438 0.175781 C 184.488281 0.152344 183.449219 0.117188 182.414062 0.0898438 L 181.636719 0.0585938 L 181.253906 0.0546875 L 181.167969 0.046875 L 180.746094 0.046875 L 179.144531 0.0664062 C 177.011719 0.0898438 174.894531 0.0898438 172.820312 0.0820312 C 171.019531 0.132812 169.273438 0.253906 167.554688 0.359375 C 165.832031 0.488281 164.132812 0.566406 162.464844 0.824219 C 159.132812 1.292969 155.851562 1.691406 152.597656 2.449219 C 151.605469 2.660156 150.601562 2.867188 149.601562 3.074219 C 148.613281 3.289062 147.628906 3.480469 146.652344 3.765625 C 144.691406 4.285156 142.753906 4.8125 140.820312 5.328125 C 139.84375 5.5625 138.898438 5.898438 137.9375 6.195312 L 135.09375 7.121094 L 132.234375 8.050781 C 131.300781 8.40625 130.359375 8.753906 129.410156 9.105469 C 124.316406 10.9375 119.285156 13.09375 114.222656 15.511719 C 113.816406 15.625 113.433594 15.730469 113.035156 15.847656 C 112.5625 15.96875 112.109375 16.09375 111.664062 16.246094 C 109.441406 16.945312 107.417969 17.628906 105.449219 18.3125 C 104.964844 18.484375 104.480469 18.667969 104.019531 18.867188 C 103.546875 19.058594 103.0625 19.261719 102.601562 19.453125 C 101.667969 19.851562 100.710938 20.25 99.757812 20.648438 L 97.746094 21.496094 C 97.070312 21.789062 96.421875 22.117188 95.773438 22.425781 C 94.445312 23.039062 93.113281 23.65625 91.789062 24.285156 C 90.441406 24.875 89.136719 25.582031 87.796875 26.257812 C 86.449219 26.9375 85.097656 27.621094 83.722656 28.3125 C 75.082031 32.824219 66.730469 38.253906 59.5625 44.511719 C 59.082031 44.917969 58.5 45.394531 57.941406 45.820312 C 56.546875 47.011719 55.15625 48.230469 53.765625 49.429688 C 53.066406 50.035156 52.355469 50.625 51.683594 51.246094 L 49.695312 53.15625 C 49.042969 53.78125 48.378906 54.425781 47.722656 55.058594 C 47.066406 55.699219 46.398438 56.3125 45.796875 56.996094 C 44.550781 58.328125 43.324219 59.664062 42.113281 61.003906 C 41.699219 61.472656 41.246094 61.921875 40.851562 62.414062 C 40.445312 62.898438 40.03125 63.390625 39.625 63.882812 C 38.792969 64.871094 37.964844 65.855469 37.152344 66.832031 C 36.089844 68.066406 35.144531 69.390625 34.160156 70.679688 C 33.199219 71.984375 32.1875 73.261719 31.230469 74.59375 C 30.289062 75.941406 29.335938 77.289062 28.378906 78.65625 C 27.910156 79.347656 27.402344 80.023438 26.925781 80.722656 C 26.457031 81.433594 25.992188 82.15625 25.53125 82.875 C 22.886719 86.78125 20.675781 90.765625 18.6875 94.890625 C 17.859375 96.75 16.820312 98.867188 15.757812 101.078125 C 14.773438 103.328125 13.761719 105.675781 12.800781 107.882812 C 13.242188 107.875 14.148438 106.265625 15.730469 102.808594 C 16.394531 101.210938 17.234375 99.6875 18.011719 98.140625 L 19.199219 95.824219 C 19.59375 95.054688 19.96875 94.269531 20.417969 93.53125 C 22.160156 90.53125 23.820312 87.484375 25.75 84.601562 L 27.28125 82.210938 C 27.546875 81.820312 27.78125 81.414062 28.050781 81.023438 L 28.871094 79.867188 C 29.96875 78.335938 31.058594 76.796875 32.144531 75.257812 C 33.285156 73.753906 34.472656 72.296875 35.648438 70.832031 C 36.25 70.097656 36.8125 69.347656 37.4375 68.644531 L 39.320312 66.539062 C 40.753906 65 42.207031 63.261719 43.808594 61.664062 C 44.59375 60.847656 45.363281 60.027344 46.132812 59.222656 C 46.902344 58.414062 47.628906 57.601562 48.386719 56.882812 C 49.460938 55.820312 50.558594 54.753906 51.65625 53.675781 C 52.207031 53.148438 52.734375 52.601562 53.304688 52.085938 L 55.019531 50.582031 C 56.167969 49.578125 57.316406 48.566406 58.464844 47.566406 C 59.625 46.578125 60.835938 45.65625 62.011719 44.695312 C 62.839844 44.035156 63.679688 43.363281 64.519531 42.695312 C 65.375 42.039062 66.261719 41.425781 67.121094 40.785156 C 67.984375 40.15625 68.832031 39.527344 69.6875 38.917969 C 70.101562 38.609375 70.515625 38.296875 70.921875 37.996094 C 71.339844 37.703125 71.761719 37.425781 72.160156 37.140625 C 73.773438 36.042969 75.375 34.96875 76.984375 33.898438 C 78.632812 32.871094 80.328125 31.925781 82.003906 30.949219 C 82.84375 30.476562 83.664062 29.957031 84.527344 29.523438 C 85.386719 29.089844 86.265625 28.644531 87.136719 28.203125 C 88.003906 27.761719 88.867188 27.328125 89.75 26.886719 L 91.0625 26.230469 L 92.414062 25.632812 C 94.320312 24.789062 95.859375 24.171875 97.339844 23.59375 C 98.089844 23.285156 98.835938 23.050781 99.605469 22.789062 C 100.175781 22.589844 100.769531 22.382812 101.386719 22.160156 L 96.277344 25.191406 C 92.878906 27.441406 89.445312 29.617188 86.214844 32.082031 C 85.4375 32.652344 84.640625 33.230469 83.847656 33.8125 L 83.257812 34.246094 L 82.695312 34.710938 C 82.308594 35.019531 81.933594 35.332031 81.554688 35.644531 C 80.058594 36.871094 78.617188 38.066406 77.398438 39.152344 C 75.625 40.839844 74.058594 42.449219 72.496094 44.035156 C 71.703125 44.804688 70.992188 45.65625 70.238281 46.484375 C 69.496094 47.3125 68.726562 48.152344 67.933594 49.023438 C 67.515625 49.484375 67.042969 49.992188 66.566406 50.527344 C 66.097656 51.074219 65.613281 51.628906 65.132812 52.199219 C 64.171875 53.320312 63.203125 54.394531 62.390625 55.207031 C 54.933594 62.8125 48.535156 71.285156 43.054688 80.480469 C 42.90625 80.722656 42.742188 80.972656 42.585938 81.230469 C 42.425781 81.484375 42.292969 81.757812 42.140625 82.027344 C 41.816406 82.554688 41.507812 83.101562 41.195312 83.636719 C 40.566406 84.699219 39.945312 85.71875 39.40625 86.546875 C 34.980469 93.628906 31.929688 101.210938 29.1875 108.882812 C 28.929688 109.367188 28.679688 109.84375 28.421875 110.328125 C 27.960938 111.246094 27.5625 112.203125 27.113281 113.128906 C 26.683594 114.054688 26.25 114.976562 25.828125 115.871094 C 25.628906 116.320312 25.410156 116.765625 25.203125 117.207031 C 24.980469 117.640625 24.78125 118.066406 24.597656 118.496094 C 23.65625 120.625 22.84375 122.601562 22.074219 124.523438 C 21.875 125.003906 21.695312 125.488281 21.53125 125.972656 C 21.359375 126.464844 21.195312 126.949219 21.03125 127.433594 C 20.710938 128.402344 20.390625 129.363281 20.054688 130.355469 L 19.371094 132.4375 C 19.152344 133.128906 18.964844 133.832031 18.757812 134.539062 C 18.359375 135.933594 17.945312 137.339844 17.53125 138.75 C 17.089844 140.15625 16.757812 141.601562 16.386719 143.046875 C 16.007812 144.5 15.617188 145.976562 15.230469 147.464844 C 12.921875 156.929688 11.496094 166.796875 11.460938 176.308594 C 11.460938 176.929688 11.425781 177.691406 11.398438 178.382812 C 11.359375 180.230469 11.359375 182.066406 11.339844 183.914062 C 11.339844 184.824219 11.304688 185.753906 11.332031 186.679688 C 11.367188 187.597656 11.410156 188.511719 11.453125 189.421875 C 11.496094 190.34375 11.53125 191.253906 11.574219 192.167969 C 11.632812 193.078125 11.644531 193.992188 11.753906 194.898438 C 11.945312 196.707031 12.128906 198.511719 12.34375 200.296875 C 12.421875 200.917969 12.464844 201.546875 12.566406 202.171875 C 12.671875 202.800781 12.765625 203.433594 12.859375 204.070312 C 13.058594 205.335938 13.257812 206.605469 13.449219 207.867188 C 13.671875 209.472656 14.046875 211.054688 14.375 212.648438 C 14.710938 214.238281 15.003906 215.835938 15.367188 217.4375 C 15.765625 219.027344 16.15625 220.640625 16.550781 222.257812 C 16.75 223.070312 16.921875 223.890625 17.148438 224.707031 C 17.367188 225.527344 17.589844 226.347656 17.832031 227.175781 C 19.023438 231.730469 20.554688 236.027344 22.335938 240.246094 C 23.191406 242.089844 24.097656 244.277344 25.050781 246.539062 C 26.097656 248.753906 27.183594 251.058594 28.210938 253.246094 C 28.496094 252.917969 27.894531 251.171875 26.328125 247.707031 C 25.578125 246.140625 24.988281 244.515625 24.339844 242.910156 L 23.382812 240.488281 C 23.070312 239.683594 22.730469 238.882812 22.464844 238.050781 C 21.359375 234.773438 20.171875 231.507812 19.273438 228.15625 L 18.503906 225.429688 C 18.359375 224.972656 18.222656 224.523438 18.109375 224.066406 L 17.78125 222.683594 C 17.355469 220.851562 16.921875 219.019531 16.484375 217.183594 C 16.101562 215.335938 15.800781 213.476562 15.460938 211.628906 C 15.300781 210.695312 15.125 209.777344 15.003906 208.84375 L 14.675781 206.035156 C 14.460938 203.949219 14.113281 201.710938 13.976562 199.449219 C 13.875 198.316406 13.769531 197.191406 13.683594 196.085938 C 13.5625 194.980469 13.449219 193.90625 13.40625 192.859375 C 13.320312 191.339844 13.226562 189.816406 13.144531 188.289062 C 13.113281 187.527344 13.042969 186.765625 13.042969 186.003906 L 13.042969 183.714844 C 13.042969 182.1875 13.042969 180.664062 13.042969 179.140625 C 13.078125 177.613281 13.1875 176.09375 13.234375 174.585938 C 13.292969 173.523438 13.335938 172.445312 13.386719 171.378906 C 13.449219 170.308594 13.578125 169.230469 13.671875 168.164062 C 13.761719 167.101562 13.863281 166.046875 13.941406 165.007812 C 13.992188 164.484375 14.027344 163.980469 14.082031 163.464844 C 14.140625 162.960938 14.203125 162.46875 14.261719 161.96875 C 14.496094 160.046875 14.746094 158.121094 15.011719 156.210938 C 15.308594 154.300781 15.730469 152.40625 16.09375 150.511719 C 16.292969 149.5625 16.449219 148.605469 16.691406 147.660156 C 16.933594 146.726562 17.183594 145.785156 17.417969 144.828125 C 17.660156 143.890625 17.917969 142.941406 18.167969 141.992188 L 18.546875 140.566406 L 18.988281 139.15625 C 19.613281 137.175781 20.171875 135.605469 20.710938 134.109375 C 20.960938 133.355469 21.28125 132.636719 21.589844 131.886719 C 21.902344 131.140625 22.222656 130.367188 22.542969 129.519531 L 23.734375 126.398438 C 24.140625 125.359375 24.601562 124.347656 25.039062 123.328125 L 26.355469 120.257812 L 26.5 119.851562 C 26.171875 121.886719 25.878906 123.871094 25.65625 125.699219 C 25.613281 126.15625 25.757812 126.101562 25.949219 125.816406 C 26.058594 125.664062 26.171875 125.464844 26.292969 125.238281 C 26.421875 125.015625 26.546875 124.761719 26.675781 124.511719 C 27.15625 123.542969 27.652344 122.402344 28.167969 121.125 C 28.421875 120.484375 28.6875 119.800781 28.949219 119.09375 C 29.078125 118.738281 29.207031 118.375 29.335938 117.996094 C 29.492188 117.632812 29.640625 117.253906 29.785156 116.871094 C 30.410156 115.332031 31.046875 113.65625 31.695312 111.875 C 31.851562 111.425781 32.007812 110.96875 32.1875 110.507812 C 32.378906 110.058594 32.5625 109.59375 32.75 109.125 C 33.121094 108.191406 33.511719 107.222656 33.902344 106.238281 C 34.816406 103.941406 35.800781 101.667969 36.824219 99.410156 C 39.3125 95.140625 41.957031 90.949219 44.695312 87.136719 C 45.328125 86.210938 45.984375 85.25 46.648438 84.300781 C 47.324219 83.382812 48.023438 82.46875 48.65625 81.597656 C 49.953125 79.847656 51 78.269531 51.707031 77.082031 C 50.550781 78.222656 49.460938 79.398438 48.292969 80.636719 C 47.722656 81.265625 47.136719 81.898438 46.554688 82.539062 C 46.261719 82.867188 45.957031 83.179688 45.675781 83.523438 C 45.398438 83.867188 45.121094 84.214844 44.835938 84.5625 C 44.5 84.976562 44.171875 85.414062 43.816406 85.832031 C 44.914062 83.921875 46.035156 82.027344 47.179688 80.167969 C 47.964844 78.90625 48.757812 77.644531 49.53125 76.382812 C 50.375 75.164062 51.207031 73.945312 52.035156 72.734375 C 53.644531 70.273438 55.40625 67.992188 57.039062 65.734375 C 60.359375 61.253906 63.601562 57.195312 66.261719 53.734375 C 66.988281 53.011719 67.605469 52.351562 68.199219 51.808594 C 68.789062 51.265625 69.308594 50.796875 69.765625 50.382812 C 70.6875 49.550781 71.355469 48.9375 71.941406 48.453125 C 72.503906 47.960938 72.972656 47.582031 73.464844 47.210938 C 73.957031 46.839844 74.5 46.511719 75.195312 46.070312 C 76.292969 45.375 77.335938 44.667969 78.546875 43.734375 C 78.839844 43.5 79.152344 43.242188 79.472656 42.984375 C 79.785156 42.714844 80.136719 42.4375 80.5 42.160156 C 81.242188 41.589844 82.039062 40.941406 82.929688 40.183594 C 83.765625 39.492188 84.65625 38.773438 85.589844 38.039062 C 86.523438 37.328125 87.535156 36.648438 88.476562 35.964844 L 90.796875 34.304688 L 91.972656 33.472656 C 92.359375 33.191406 92.765625 32.945312 93.164062 32.6875 L 97.988281 29.578125 C 98.382812 29.316406 98.789062 29.066406 99.214844 28.839844 L 100.449219 28.125 L 102.929688 26.699219 C 103.761719 26.238281 104.574219 25.753906 105.414062 25.304688 C 106.261719 24.867188 107.105469 24.449219 107.953125 24.019531 C 108.886719 23.566406 109.804688 23.09375 110.730469 22.632812 L 112.128906 21.941406 L 113.546875 21.3125 C 115.457031 20.484375 117.351562 19.660156 119.25 18.832031 C 121.179688 18.113281 123.097656 17.40625 124.984375 16.703125 C 125.457031 16.53125 125.917969 16.359375 126.398438 16.1875 C 126.867188 16.039062 127.34375 15.894531 127.824219 15.746094 C 128.757812 15.460938 129.695312 15.175781 130.625 14.898438 C 131.863281 14.535156 133.054688 14.144531 134.25 13.820312 C 135.441406 13.515625 136.601562 13.210938 137.757812 12.886719 C 138.90625 12.574219 140.039062 12.253906 141.179688 11.910156 C 142.046875 11.683594 142.910156 11.464844 143.78125 11.226562 C 145.363281 11.015625 146.929688 10.820312 148.460938 10.671875 C 149.582031 10.535156 150.742188 10.402344 151.875 10.273438 C 153.023438 10.179688 154.15625 10.085938 155.238281 9.996094 C 157.414062 9.816406 159.289062 9.566406 160.640625 9.304688 C 159.023438 9.191406 157.429688 9.140625 155.710938 9.089844 C 154.871094 9.074219 154.015625 9.054688 153.136719 9.039062 C 153.085938 9.039062 153.039062 9.039062 152.980469 9.03125 C 153.492188 8.925781 154.007812 8.824219 154.519531 8.71875 C 155.359375 8.546875 156.203125 8.363281 157.042969 8.214844 C 157.882812 8.078125 158.738281 7.941406 159.582031 7.808594 C 161.261719 7.535156 162.945312 7.25 164.605469 6.953125 C 166.601562 6.6875 168.730469 6.445312 170.941406 6.203125 C 171.496094 6.144531 172.039062 6.089844 172.609375 6.023438 C 173.171875 5.984375 173.742188 5.960938 174.304688 5.933594 C 175.445312 5.875 176.605469 5.824219 177.78125 5.777344 C 178.9375 5.734375 180.128906 5.65625 181.289062 5.648438 C 182.480469 5.65625 183.664062 5.660156 184.851562 5.683594 C 186.042969 5.691406 187.226562 5.710938 188.410156 5.71875 C 189 5.71875 189.589844 5.746094 190.167969 5.78125 C 190.753906 5.820312 191.332031 5.855469 191.921875 5.890625 C 203.738281 6.488281 215.769531 8.703125 227.03125 11.699219 C 231.769531 12.972656 236.671875 14.578125 241.0625 16.152344 C 242.046875 16.5 243.050781 16.800781 244.007812 17.1875 C 244.96875 17.5625 245.921875 17.949219 246.886719 18.328125 C 248.800781 19.097656 250.734375 19.789062 252.585938 20.664062 C 254.441406 21.511719 256.320312 22.332031 258.175781 23.179688 C 260 24.105469 261.816406 25.027344 263.632812 25.953125 C 264.097656 26.1875 264.566406 26.421875 265.03125 26.664062 C 265.492188 26.921875 265.9375 27.171875 266.371094 27.414062 C 267.238281 27.882812 268.050781 28.304688 268.652344 28.589844 C 271.679688 29.902344 275.09375 32.101562 278.714844 34.546875 C 280.453125 35.851562 282.242188 37.226562 284.03125 38.632812 C 284.9375 39.316406 285.769531 40.097656 286.632812 40.847656 C 287.472656 41.597656 288.328125 42.351562 289.15625 43.09375 C 289.695312 43.589844 290.246094 44.0625 290.773438 44.574219 L 292.347656 46.128906 C 293.375 47.160156 294.421875 48.203125 295.457031 49.234375 C 295.710938 49.492188 295.976562 49.75 296.230469 50.011719 L 296.972656 50.824219 C 297.457031 51.367188 297.949219 51.910156 298.441406 52.449219 C 299.410156 53.535156 300.386719 54.601562 301.347656 55.6875 C 302.261719 56.804688 303.160156 57.917969 304.050781 59.015625 C 304.941406 60.125 305.855469 61.195312 306.667969 62.320312 C 307.480469 63.453125 308.285156 64.566406 309.074219 65.671875 C 309.472656 66.21875 309.867188 66.769531 310.25 67.308594 C 310.445312 67.585938 310.636719 67.851562 310.820312 68.121094 C 311.011719 68.40625 311.175781 68.683594 311.355469 68.957031 C 312.476562 70.703125 313.601562 72.441406 314.742188 74.171875 C 315.5625 75.484375 316.34375 76.816406 317.144531 78.136719 C 316.773438 77.722656 316.378906 77.292969 316.007812 76.875 L 314.085938 74.734375 C 313.4375 74.042969 312.753906 73.367188 312.082031 72.691406 C 310.722656 71.328125 309.410156 69.945312 308.019531 68.621094 C 306.601562 67.324219 305.183594 66.019531 303.773438 64.707031 C 303.445312 64.394531 303.101562 64.09375 302.769531 63.78125 C 302.425781 63.484375 302.0625 63.191406 301.714844 62.890625 C 301.007812 62.285156 300.28125 61.671875 299.554688 61.050781 C 298.832031 60.433594 298.09375 59.8125 297.359375 59.171875 L 296.808594 58.699219 L 296.226562 58.246094 C 295.839844 57.945312 295.457031 57.636719 295.0625 57.339844 C 293.511719 56.136719 291.964844 54.894531 290.386719 53.699219 C 288.769531 52.558594 287.160156 51.417969 285.578125 50.296875 C 284.445312 49.394531 283.210938 48.574219 281.957031 47.71875 C 280.710938 46.863281 279.425781 45.984375 278.121094 45.109375 C 276.789062 44.261719 275.414062 43.457031 274.039062 42.613281 C 272.636719 41.789062 271.265625 40.90625 269.792969 40.15625 C 268.332031 39.386719 266.882812 38.601562 265.410156 37.820312 L 264.3125 37.234375 C 263.941406 37.050781 263.546875 36.878906 263.191406 36.691406 L 260.933594 35.628906 C 260.175781 35.273438 259.429688 34.917969 258.6875 34.570312 C 257.925781 34.21875 257.199219 33.835938 256.421875 33.535156 C 254.910156 32.902344 253.390625 32.273438 251.902344 31.652344 C 251.113281 31.324219 250.3125 30.976562 249.5 30.671875 C 248.6875 30.371094 247.867188 30.078125 247.035156 29.785156 C 245.386719 29.203125 243.726562 28.601562 242.046875 28.035156 C 240.351562 27.535156 238.625 27.027344 236.914062 26.523438 C 236.050781 26.28125 235.183594 26.015625 234.320312 25.78125 C 233.714844 25.644531 233.101562 25.496094 232.503906 25.359375 C 225.269531 21.875 217.894531 18.816406 210.359375 16.144531 C 208.714844 15.496094 206.703125 14.992188 204.859375 14.449219 C 202.992188 13.929688 200.859375 13.308594 199.3125 12.9375 C 195.992188 12.039062 192.890625 11.285156 189.671875 10.886719 C 185.257812 10.160156 180.640625 9.78125 176.578125 9.488281 C 174.917969 9.445312 173.871094 9.617188 173.628906 9.78125 C 173.464844 9.902344 174.078125 10.03125 175.015625 10.160156 C 175.488281 10.230469 176.042969 10.292969 176.636719 10.351562 C 177.210938 10.4375 177.816406 10.523438 178.402344 10.609375 C 179.957031 10.828125 181.515625 11.042969 183.070312 11.261719 C 183.847656 11.382812 184.636719 11.457031 185.394531 11.613281 C 186.171875 11.761719 186.949219 11.90625 187.722656 12.046875 C 189.285156 12.332031 190.847656 12.617188 192.414062 12.902344 C 193.988281 13.222656 195.550781 13.601562 197.152344 13.9375 C 198.734375 14.300781 200.359375 14.578125 201.941406 15.046875 C 203.539062 15.484375 205.136719 15.925781 206.726562 16.367188 C 208.328125 16.78125 209.875 17.371094 211.414062 17.90625 C 212.945312 18.46875 214.480469 19.019531 215.933594 19.636719 C 216.351562 19.832031 217.203125 20.121094 217.84375 20.378906 C 220.785156 21.503906 223.695312 22.722656 226.558594 24.019531 C 226.507812 24.007812 226.460938 23.992188 226.410156 23.984375 C 224.628906 23.6875 222.851562 23.386719 221.070312 23.085938 C 220.171875 22.945312 219.296875 22.789062 218.390625 22.660156 C 217.507812 22.558594 216.609375 22.46875 215.71875 22.367188 C 213.929688 22.1875 212.148438 22.003906 210.386719 21.824219 C 208.457031 21.734375 206.453125 21.625 204.402344 21.496094 C 203.886719 21.460938 203.375 21.425781 202.855469 21.398438 L 202.078125 21.347656 L 201.308594 21.332031 C 200.289062 21.3125 199.261719 21.292969 198.222656 21.269531 C 197.195312 21.242188 196.15625 21.210938 195.128906 21.183594 L 194.34375 21.15625 L 193.953125 21.148438 L 193.488281 21.148438 L 193.140625 21.15625 C 192.066406 21.042969 190.996094 20.957031 189.933594 20.855469 L 187.195312 20.613281 C 186.292969 20.535156 185.371094 20.449219 184.46875 20.429688 L 178.988281 20.207031 L 177.625 20.15625 L 176.242188 20.171875 L 173.507812 20.195312 C 169.855469 20.152344 166.214844 20.449219 162.574219 20.644531 C 160.769531 20.777344 158.953125 21.007812 157.144531 21.183594 L 154.425781 21.46875 C 153.523438 21.589844 152.632812 21.738281 151.726562 21.875 C 150.578125 22.054688 149.28125 22.253906 148.382812 22.429688 C 140.171875 24.21875 131.042969 26.507812 121.246094 29.859375 C 119.882812 30.328125 118.535156 30.8125 117.226562 31.289062 C 107.683594 34.996094 98.507812 39.359375 89.652344 44.304688 C 88.0625 45.117188 86.371094 46.285156 84.746094 47.320312 C 83.128906 48.375 81.261719 49.570312 79.957031 50.484375 C 77.085938 52.378906 74.476562 54.21875 72.046875 56.382812 C 68.582031 59.207031 65.261719 62.429688 62.347656 65.292969 C 61.226562 66.503906 60.65625 67.410156 60.636719 67.703125 C 60.609375 67.902344 61.113281 67.523438 61.839844 66.902344 C 62.199219 66.589844 62.609375 66.21875 63.039062 65.828125 C 63.496094 65.441406 63.949219 65.042969 64.40625 64.664062 C 65.597656 63.640625 66.789062 62.613281 67.976562 61.59375 C 68.582031 61.089844 69.152344 60.539062 69.78125 60.074219 C 70.40625 59.589844 71.011719 59.105469 71.648438 58.613281 C 72.886719 57.636719 74.128906 56.648438 75.390625 55.65625 C 76.664062 54.695312 77.976562 53.769531 79.289062 52.792969 C 80.597656 51.835938 81.890625 50.804688 83.277344 49.921875 C 84.660156 49.007812 86.042969 48.101562 87.425781 47.191406 C 88.789062 46.265625 90.25 45.496094 91.675781 44.695312 C 93.105469 43.910156 94.527344 43.136719 95.957031 42.445312 C 96.378906 42.257812 97.164062 41.808594 97.769531 41.496094 C 107.761719 36.238281 118.324219 32.039062 129.183594 28.988281 C 130.6875 28.519531 132.226562 28.132812 133.765625 27.769531 C 71.941406 46.726562 26.992188 104.292969 26.992188 172.359375 C 26.992188 195.582031 32.234375 217.558594 41.578125 237.222656 C 41.585938 237.238281 41.585938 237.253906 41.59375 237.265625 C 39.789062 233.789062 38.152344 230.195312 36.726562 226.46875 C 35.457031 222.898438 33.746094 218.828125 32.542969 214.859375 C 29.5625 205.722656 27.132812 197.15625 25.609375 187.976562 C 25.316406 186.066406 25.039062 184.191406 24.753906 182.375 C 24.6875 181.917969 24.597656 181.460938 24.546875 181.007812 C 24.503906 180.558594 24.453125 180.09375 24.417969 179.652344 C 24.3125 178.753906 24.203125 177.863281 24.109375 176.988281 C 24.011719 176.109375 23.910156 175.242188 23.804688 174.378906 C 23.746094 173.949219 23.691406 173.523438 23.65625 173.101562 C 23.621094 172.675781 23.589844 172.253906 23.554688 171.832031 C 23.414062 170.152344 23.292969 168.503906 23.164062 166.894531 C 23.128906 166.488281 23.085938 166.089844 23.050781 165.699219 L 23.027344 165.390625 L 23.011719 165.242188 L 23.011719 165.121094 C 23.007812 165.140625 23.011719 165.0625 23.007812 165.164062 L 23.007812 165.140625 L 22.976562 164.542969 C 22.941406 163.746094 22.90625 162.953125 22.871094 162.183594 C 22.792969 160.621094 22.699219 159.105469 22.605469 157.621094 C 22.542969 156.867188 22.558594 156.160156 22.542969 155.441406 C 22.515625 154.730469 22.5 154.023438 22.480469 153.324219 C 22.4375 151.929688 22.378906 150.566406 22.316406 149.21875 C 21.875 150.339844 21.382812 151.492188 21.03125 152.363281 C 20.925781 153.28125 20.8125 154.1875 20.703125 155.078125 C 20.597656 155.96875 20.460938 156.851562 20.425781 157.722656 C 20.285156 159.445312 20.164062 161.144531 20.042969 162.796875 C 19.976562 163.644531 19.898438 164.429688 19.863281 165.3125 C 19.847656 166.140625 19.828125 166.972656 19.820312 167.792969 C 19.792969 169.445312 19.765625 171.105469 19.742188 172.773438 C 19.863281 181.734375 20.613281 190.796875 22.457031 199.992188 C 24.445312 209.8125 27.460938 219.511719 31.410156 228.855469 C 35.34375 238.207031 40.203125 247.179688 45.785156 255.625 C 47.03125 257.507812 48.535156 259.34375 49.902344 261.226562 C 50.789062 262.472656 52.164062 263.976562 52.710938 264.777344 C 53.625 266.128906 54.578125 267.457031 55.570312 268.738281 C 56.625 269.984375 57.691406 271.210938 58.769531 272.429688 L 59.46875 273.214844 C 59.523438 273.300781 59.574219 273.386719 59.632812 273.476562 C 60.886719 275.34375 62.324219 277.199219 63.679688 279.078125 C 64.535156 280.328125 65.875 281.84375 66.417969 282.621094 C 67.386719 283.925781 68.355469 285.222656 69.347656 286.492188 C 70.394531 287.726562 71.449219 288.945312 72.511719 290.15625 L 74.105469 291.957031 C 74.640625 292.558594 75.226562 293.121094 75.773438 293.703125 L 79.144531 297.167969 C 79.644531 297.710938 80.1875 298.203125 80.714844 298.699219 L 82.316406 300.203125 C 83.378906 301.203125 84.441406 302.207031 85.515625 303.191406 L 88.84375 306.019531 L 90.511719 307.4375 C 90.804688 307.671875 91.070312 307.921875 91.355469 308.144531 L 92.222656 308.820312 C 93.386719 309.71875 94.539062 310.617188 95.695312 311.515625 L 97.410156 312.867188 L 99.214844 314.160156 C 100.417969 315.019531 101.617188 315.882812 102.808594 316.753906 L 103.285156 317.09375 C 102.671875 316.859375 102.050781 316.632812 101.453125 316.375 L 99.058594 315.425781 L 96.683594 314.367188 L 91.972656 312.242188 C 90.433594 311.464844 88.902344 310.6875 87.378906 309.910156 C 86.601562 309.519531 85.832031 309.15625 85.066406 308.742188 L 82.824219 307.472656 C 81.339844 306.625 79.824219 305.804688 78.347656 304.9375 C 76.886719 304.023438 75.433594 303.121094 73.984375 302.207031 C 73.257812 301.738281 72.515625 301.316406 71.820312 300.816406 L 69.710938 299.355469 L 67.59375 297.902344 C 66.894531 297.394531 66.175781 296.949219 65.503906 296.414062 C 63.851562 295.152344 62.210938 293.953125 60.578125 292.683594 C 53.316406 286.769531 46.609375 280.191406 40.652344 273.042969 C 40.148438 272.445312 39.613281 271.824219 39.054688 271.210938 C 38.507812 270.597656 38 269.9375 37.488281 269.316406 C 36.796875 268.453125 36.113281 267.605469 35.414062 266.75 C 34.730469 265.894531 33.996094 265.074219 33.375 264.164062 C 31.480469 261.527344 29.46875 258.902344 27.738281 256.125 C 26.847656 254.75 25.929688 253.402344 25.082031 252.039062 C 24.246094 250.65625 23.425781 249.289062 22.628906 247.949219 C 21.261719 245.8125 20.085938 243.417969 18.84375 241.1875 C 17.554688 238.96875 16.527344 236.753906 15.507812 235 C 13.664062 231.742188 13.320312 231.6875 14.902344 235.890625 C 15.332031 237.023438 15.828125 238.292969 16.335938 239.566406 C 16.898438 240.824219 17.46875 242.085938 17.988281 243.230469 C 18.464844 244.316406 18.957031 245.414062 19.484375 246.539062 C 20.011719 247.648438 20.632812 248.761719 21.246094 249.902344 C 21.875 251.035156 22.492188 252.203125 23.148438 253.386719 C 23.832031 254.550781 24.589844 255.695312 25.34375 256.886719 C 28.738281 262.359375 32.640625 267.511719 36.65625 272.523438 C 40.84375 277.40625 45.164062 282.144531 49.890625 286.335938 C 51.234375 287.539062 52.632812 288.9375 54.085938 290.132812 C 65.617188 300.445312 78.640625 309.105469 92.636719 315.710938 L 97.675781 318.023438 C 99.371094 318.734375 101.089844 319.398438 102.8125 320.089844 L 105.386719 321.113281 L 107.996094 322.019531 C 109.734375 322.613281 111.472656 323.253906 113.246094 323.800781 C 113.78125 323.964844 114.324219 324.113281 114.867188 324.277344 C 123.71875 329.109375 132.980469 333.066406 142.554688 336.59375 C 143.089844 336.785156 143.800781 337.035156 144.578125 337.277344 C 144.960938 337.40625 145.363281 337.535156 145.761719 337.671875 C 146.160156 337.777344 146.558594 337.882812 146.929688 337.992188 C 150.644531 339.089844 154.40625 340.050781 158.183594 340.878906 C 155.269531 340.601562 152.3125 340.378906 149.394531 339.894531 C 147.777344 339.652344 146.160156 339.453125 144.5625 339.195312 C 142.988281 338.910156 141.414062 338.617188 139.882812 338.332031 C 137.386719 337.957031 134.792969 337.257812 132.292969 336.722656 C 129.789062 336.222656 127.453125 335.527344 125.441406 335.140625 C 121.785156 334.378906 121.507812 334.597656 125.707031 336.1875 C 126.847656 336.617188 128.121094 337.070312 129.417969 337.535156 C 130.730469 337.933594 132.0625 338.339844 133.265625 338.71875 C 134.394531 339.074219 135.546875 339.425781 136.738281 339.78125 C 137.929688 340.109375 139.160156 340.378906 140.4375 340.679688 C 141.691406 340.957031 142.996094 341.253906 144.308594 341.546875 C 145.640625 341.796875 147 341.996094 148.375 342.21875 C 154.734375 343.28125 161.199219 343.742188 167.605469 344.035156 C 170.996094 344.070312 174.382812 344.054688 177.753906 343.921875 C 178.253906 343.972656 178.773438 344.035156 179.277344 344.070312 C 181.253906 344.21875 183.226562 344.355469 185.203125 344.503906 C 187.175781 344.582031 189.144531 344.613281 191.09375 344.664062 C 192.101562 344.667969 193.042969 344.71875 194.074219 344.710938 C 195.058594 344.683594 196.027344 344.65625 197.011719 344.625 C 198 344.597656 198.984375 344.578125 199.96875 344.542969 C 200.9375 344.5 201.914062 344.511719 202.890625 344.414062 C 204.835938 344.25 206.769531 344.085938 208.707031 343.929688 L 210.140625 343.808594 L 211.570312 343.613281 C 212.519531 343.484375 213.472656 343.351562 214.414062 343.214844 C 218.214844 342.765625 221.882812 341.941406 225.496094 341.21875 C 225.996094 341.132812 226.507812 340.992188 227.007812 340.863281 C 227.519531 340.734375 228.027344 340.601562 228.546875 340.472656 C 229.582031 340.199219 230.621094 339.9375 231.667969 339.671875 C 233.777344 339.1875 235.882812 338.496094 238.003906 337.890625 C 239.054688 337.59375 240.066406 337.292969 241.070312 337 C 242.074219 336.695312 243.035156 336.332031 243.992188 336.003906 C 244.941406 335.667969 245.875 335.339844 246.808594 335.011719 C 247.269531 334.847656 247.734375 334.683594 248.191406 334.519531 L 248.875 334.277344 L 249.542969 334 C 251.316406 333.257812 253.0625 332.523438 254.804688 331.804688 L 256.109375 331.25 L 257.375 330.636719 C 258.222656 330.222656 259.074219 329.808594 259.933594 329.394531 C 261.132812 328.804688 262.359375 328.242188 263.554688 327.609375 C 264.757812 326.957031 265.964844 326.304688 267.175781 325.640625 C 267.796875 325.304688 268.410156 324.976562 269.023438 324.648438 L 269.957031 324.136719 L 270.859375 323.59375 C 272.066406 322.875 273.304688 322.125 274.546875 321.386719 C 275.171875 321.015625 275.792969 320.636719 276.417969 320.265625 C 277.03125 319.867188 277.644531 319.460938 278.265625 319.054688 C 279.511719 318.25 280.757812 317.429688 282.027344 316.597656 C 282.347656 316.382812 282.65625 316.183594 282.984375 315.96875 C 283.289062 315.75 283.597656 315.527344 283.917969 315.304688 C 284.542969 314.855469 285.15625 314.414062 285.796875 313.964844 C 287.058594 313.046875 288.363281 312.175781 289.640625 311.214844 C 291.621094 309.660156 293.636719 308.15625 295.597656 306.613281 C 297.507812 305 299.410156 303.398438 301.257812 301.765625 C 307.199219 296.277344 312.574219 290.660156 317.628906 284.710938 C 318.847656 283.183594 320.070312 281.660156 321.296875 280.136719 C 321.925781 279.394531 322.480469 278.566406 323.058594 277.777344 C 323.636719 276.976562 324.21875 276.179688 324.789062 275.382812 C 325.375 274.574219 325.964844 273.769531 326.523438 272.957031 C 327.0625 272.117188 327.605469 271.277344 328.152344 270.433594 C 328.695312 269.578125 329.246094 268.738281 329.792969 267.875 C 330.058594 267.449219 330.328125 267.019531 330.605469 266.585938 C 330.847656 266.144531 331.113281 265.703125 331.355469 265.246094 C 332.335938 263.542969 333.335938 261.789062 334.355469 260.035156 C 335.28125 258.234375 336.234375 256.410156 337.175781 254.597656 L 337.882812 253.246094 C 338.109375 252.789062 338.308594 252.3125 338.515625 251.855469 C 338.945312 250.9375 339.355469 250.023438 339.769531 249.117188 C 340.183594 248.199219 340.589844 247.308594 340.980469 246.425781 C 341.375 245.535156 341.703125 244.621094 342.03125 243.746094 C 342.429688 242.710938 342.828125 241.683594 343.226562 240.652344 C 343.621094 239.609375 344.027344 238.570312 344.359375 237.5 C 345.042969 235.378906 345.742188 233.238281 346.441406 231.109375 C 347.03125 228.941406 347.632812 226.773438 348.214844 224.617188 C 348.542969 223.546875 348.742188 222.441406 348.984375 221.359375 C 349.222656 220.269531 349.457031 219.183594 349.691406 218.109375 C 350.210938 215.972656 350.503906 213.796875 350.867188 211.671875 C 351.023438 210.613281 351.195312 209.554688 351.367188 208.515625 C 351.53125 207.46875 351.601562 206.421875 351.714844 205.386719 C 351.824219 204.359375 351.9375 203.335938 352.027344 202.324219 C 352.078125 201.816406 352.136719 201.316406 352.179688 200.820312 L 352.257812 200.0625 L 352.292969 199.324219 C 352.371094 197.339844 352.441406 195.425781 352.519531 193.5625 C 352.527344 192.964844 352.613281 192.117188 352.59375 191.324219 C 352.605469 190.535156 352.605469 189.820312 352.578125 189.515625 C 352.441406 187.804688 352.269531 186.90625 352.136719 185.304688 C 351.84375 181.824219 351.34375 184.128906 350.917969 190.828125 C 350.902344 191.160156 350.875 191.488281 350.859375 191.832031 C 350.832031 192.160156 350.789062 192.480469 350.753906 192.808594 C 350.675781 193.464844 350.605469 194.121094 350.523438 194.796875 C 350.390625 196.121094 350.253906 197.46875 350.117188 198.835938 C 350.089844 199.1875 350.039062 199.523438 350.011719 199.871094 C 349.960938 200.21875 349.90625 200.570312 349.855469 200.910156 C 349.753906 201.609375 349.640625 202.308594 349.542969 203.019531 C 349.335938 204.433594 349.128906 205.859375 348.929688 207.304688 C 348.6875 208.746094 348.386719 210.183594 348.117188 211.652344 C 347.988281 212.378906 347.84375 213.113281 347.710938 213.855469 C 347.558594 214.589844 347.453125 215.335938 347.253906 216.070312 C 346.90625 217.539062 346.554688 219.027344 346.207031 220.519531 C 346.035156 221.265625 345.855469 222.007812 345.6875 222.761719 C 345.492188 223.511719 345.265625 224.253906 345.058594 225 L 343.648438 229.96875 C 343.148438 231.605469 342.558594 233.230469 342.023438 234.871094 L 341.210938 237.316406 C 340.933594 238.128906 340.605469 238.925781 340.296875 239.730469 C 339.664062 241.335938 339.042969 242.9375 338.421875 244.535156 C 337.867188 245.847656 337.261719 247.144531 336.683594 248.433594 C 336.101562 249.71875 335.566406 251.007812 334.96875 252.253906 C 334.363281 253.496094 333.753906 254.714844 333.171875 255.902344 C 332.886719 256.5 332.59375 257.09375 332.332031 257.679688 C 332.1875 257.976562 332.050781 258.269531 331.925781 258.554688 C 331.773438 258.839844 331.632812 259.117188 331.480469 259.394531 C 330.875 260.578125 330.007812 262.160156 329.050781 263.855469 C 328.824219 264.277344 328.582031 264.703125 328.332031 265.148438 C 328.082031 265.582031 327.804688 265.996094 327.554688 266.421875 C 327.011719 267.269531 326.5 268.113281 325.996094 268.910156 C 323.078125 273.707031 318.988281 279.078125 316.414062 282.542969 C 315.953125 283.15625 315.53125 283.8125 315.019531 284.410156 C 314.527344 285.015625 314.019531 285.628906 313.515625 286.25 C 312.496094 287.484375 311.460938 288.738281 310.394531 289.992188 C 309.273438 291.195312 308.140625 292.414062 307.015625 293.625 L 305.289062 295.457031 L 303.5 297.203125 L 300.324219 300.289062 C 299.246094 301.300781 298.105469 302.25 297.007812 303.242188 L 295.339844 304.707031 C 294.785156 305.199219 294.238281 305.691406 293.644531 306.15625 C 292.492188 307.074219 291.316406 308 290.144531 308.925781 L 288.398438 310.316406 C 287.78125 310.753906 287.179688 311.1875 286.5625 311.613281 C 285.335938 312.492188 284.109375 313.359375 282.890625 314.230469 C 282.269531 314.671875 281.621094 315.085938 280.988281 315.484375 C 280.347656 315.890625 279.710938 316.296875 279.0625 316.703125 C 277.773438 317.5 276.496094 318.347656 275.15625 319.121094 C 265.117188 324.957031 254.078125 329.953125 242.722656 333.574219 C 242.039062 333.800781 241.363281 334.023438 240.683594 334.25 C 239.984375 334.441406 239.296875 334.632812 238.605469 334.828125 C 237.222656 335.226562 235.824219 335.609375 234.425781 336.011719 C 233.042969 336.4375 231.605469 336.707031 230.195312 337.050781 C 228.78125 337.371094 227.355469 337.699219 225.953125 338.027344 C 224.554688 338.320312 222.695312 338.617188 221.832031 338.746094 C 220.359375 338.933594 219.027344 339.152344 217.6875 339.394531 C 216.347656 339.574219 214.992188 339.78125 213.496094 340.007812 C 212.46875 340.15625 211.398438 340.320312 210.300781 340.484375 C 209.203125 340.644531 208.078125 340.726562 206.96875 340.835938 C 205.855469 340.933594 204.757812 341.027344 203.703125 341.128906 C 203.175781 341.171875 202.667969 341.210938 202.164062 341.25 C 201.828125 341.277344 201.507812 341.285156 201.171875 341.285156 C 213.480469 339.101562 225.527344 335.488281 236.992188 330.53125 L 242.039062 328.269531 C 243.707031 327.464844 245.339844 326.601562 246.984375 325.78125 L 249.449219 324.523438 L 251.851562 323.152344 C 253.449219 322.234375 255.082031 321.355469 256.640625 320.394531 C 258.460938 319.253906 260.261719 318.113281 262.058594 316.972656 C 262.96875 316.433594 263.820312 315.785156 264.695312 315.183594 L 267.289062 313.332031 C 275.109375 307.59375 282.425781 301.101562 289.003906 294.046875 C 289.832031 293.15625 290.660156 292.257812 291.480469 291.359375 C 292.285156 290.46875 293.144531 289.59375 293.902344 288.644531 C 295.457031 286.785156 297.03125 284.953125 298.570312 283.085938 C 300.046875 281.160156 301.507812 279.214844 302.988281 277.269531 C 304.40625 275.28125 305.753906 273.207031 307.136719 271.140625 C 310.964844 264.984375 314.648438 258.648438 317.707031 251.953125 L 318.882812 249.46875 C 319.28125 248.632812 319.601562 247.777344 319.964844 246.929688 L 322.089844 241.835938 C 322.730469 240.101562 323.34375 238.371094 323.96875 236.644531 C 323.976562 236.617188 324 236.589844 324.007812 236.5625 C 324.097656 236.367188 324.207031 236.175781 324.296875 235.984375 L 325.011719 234.636719 C 325.246094 234.179688 325.453125 233.71875 325.667969 233.261719 C 326.085938 232.347656 326.507812 231.429688 326.929688 230.523438 C 327.335938 229.617188 327.742188 228.722656 328.140625 227.832031 C 328.515625 226.9375 328.832031 226.027344 329.164062 225.144531 C 329.550781 224.117188 329.933594 223.070312 330.3125 222.035156 C 330.699219 221.003906 331.097656 219.953125 331.402344 218.886719 C 332.082031 216.753906 332.75 214.625 333.425781 212.480469 C 333.996094 210.3125 334.574219 208.136719 335.136719 205.980469 C 335.445312 204.910156 335.636719 203.8125 335.871094 202.722656 C 336.09375 201.632812 336.3125 200.554688 336.527344 199.472656 C 337.027344 197.328125 337.289062 195.160156 337.597656 193.035156 C 337.753906 191.972656 337.902344 190.917969 338.046875 189.878906 C 338.1875 188.839844 338.238281 187.785156 338.339844 186.757812 C 338.410156 185.722656 338.488281 184.703125 338.558594 183.691406 C 338.59375 183.179688 338.625 182.679688 338.660156 182.183594 L 338.714844 181.441406 L 338.730469 180.691406 C 338.746094 178.726562 338.757812 176.816406 338.730469 174.976562 C 338.714844 174.378906 338.789062 173.550781 338.757812 172.746094 C 338.746094 171.953125 338.730469 171.242188 338.671875 170.941406 C 338.375 169.226562 338.011719 168.320312 337.695312 166.714844 C 337.027344 163.222656 336.09375 165.519531 335.417969 172.21875 C 335.378906 172.554688 335.351562 172.882812 335.308594 173.222656 C 335.273438 173.550781 335.214844 173.851562 335.167969 174.171875 C 335.074219 174.8125 334.980469 175.445312 334.894531 176.097656 C 334.710938 177.386719 334.539062 178.695312 334.363281 180.023438 C 334.324219 180.359375 334.277344 180.683594 334.238281 181.019531 C 334.175781 181.363281 334.117188 181.699219 334.0625 182.039062 C 333.949219 182.722656 333.828125 183.402344 333.71875 184.09375 C 333.507812 185.476562 333.277344 186.871094 333.042969 188.28125 C 332.886719 189.160156 332.699219 190.035156 332.523438 190.914062 C 332.535156 190.632812 332.550781 190.363281 332.574219 190.085938 C 332.601562 189.617188 332.628906 189.160156 332.636719 188.695312 L 332.652344 187.304688 L 332.664062 184.519531 C 332.671875 183.59375 332.679688 182.667969 332.679688 181.738281 C 332.695312 180.8125 332.609375 179.894531 332.578125 178.96875 C 332.492188 177.128906 332.402344 175.285156 332.324219 173.457031 C 331.511719 162.875 329.734375 152.269531 326.828125 142.105469 C 326.429688 140.789062 326.035156 139.421875 325.644531 138.042969 C 319.539062 111.78125 306.609375 88.15625 288.804688 69.121094 L 287.4375 67.4375 L 286.566406 66.375 L 285.65625 65.355469 L 283.832031 63.320312 C 281.457031 60.539062 278.84375 58.007812 276.296875 55.402344 C 274.992188 54.125 273.625 52.921875 272.292969 51.679688 L 270.296875 49.828125 C 269.597656 49.230469 268.898438 48.652344 268.203125 48.058594 C 267.296875 47.3125 266.304688 46.476562 265.59375 45.921875 C 259.421875 41.375 252.429688 36.527344 244.449219 31.8125 C 247.648438 32.835938 250.828125 33.941406 253.753906 35.066406 C 254.726562 35.4375 255.699219 35.765625 256.664062 36.164062 C 257.609375 36.570312 258.566406 36.96875 259.507812 37.375 C 261.394531 38.1875 263.304688 38.921875 265.121094 39.84375 C 266.953125 40.734375 268.792969 41.597656 270.625 42.492188 C 272.398438 43.464844 274.1875 44.425781 275.976562 45.386719 C 276.433594 45.636719 276.890625 45.886719 277.347656 46.136719 C 277.792969 46.398438 278.238281 46.664062 278.664062 46.914062 C 279.503906 47.410156 280.28125 47.851562 280.859375 48.179688 C 283.738281 49.664062 287.058594 51.945312 290.609375 54.417969 C 292.3125 55.730469 294.085938 57.097656 295.855469 58.492188 C 296.757812 59.171875 297.578125 59.953125 298.433594 60.675781 C 299.273438 61.421875 300.125 62.15625 300.957031 62.890625 C 301.5 63.375 302.046875 63.839844 302.582031 64.339844 L 304.136719 65.855469 C 305.183594 66.867188 306.230469 67.886719 307.273438 68.90625 C 307.527344 69.15625 307.792969 69.40625 308.035156 69.660156 L 308.78125 70.460938 C 309.28125 70.996094 309.78125 71.523438 310.265625 72.054688 C 311.242188 73.109375 312.21875 74.171875 313.1875 75.214844 C 314.121094 76.3125 315.019531 77.402344 315.929688 78.476562 C 316.820312 79.566406 317.753906 80.609375 318.589844 81.707031 C 319.421875 82.8125 320.242188 83.902344 321.039062 84.976562 C 321.148438 85.105469 321.242188 85.242188 321.347656 85.371094 L 322.664062 87.730469 C 323.179688 88.640625 323.628906 89.589844 324.105469 90.515625 L 325.53125 93.316406 C 325.996094 94.25 326.507812 95.160156 326.921875 96.132812 C 327.789062 98.042969 328.675781 99.945312 329.550781 101.863281 C 331.148438 105.746094 332.800781 109.621094 334.113281 113.613281 C 334.460938 114.613281 334.804688 115.59375 335.152344 116.578125 C 335.507812 117.554688 335.773438 118.558594 336.085938 119.535156 C 336.390625 120.527344 336.683594 121.515625 336.992188 122.5 L 337.445312 123.984375 L 337.675781 124.726562 L 337.867188 125.480469 C 338.375 127.496094 338.867188 129.535156 339.355469 131.628906 C 339.621094 132.671875 339.761719 133.746094 339.957031 134.835938 C 340.132812 135.929688 340.320312 137.03125 340.496094 138.152344 C 340.617188 138.90625 340.746094 139.683594 340.867188 140.46875 C 340.96875 141.257812 341.066406 142.058594 341.167969 142.871094 C 341.375 144.480469 341.601562 146.125 341.835938 147.789062 C 341.972656 148.613281 342.035156 149.449219 342.109375 150.28125 C 342.195312 151.121094 342.273438 151.957031 342.351562 152.789062 C 342.4375 153.632812 342.515625 154.457031 342.59375 155.285156 C 342.671875 156.113281 342.765625 156.929688 342.785156 157.75 C 342.984375 162.476562 343.625 165.941406 344.0625 165.054688 C 344.835938 163.402344 345.613281 161.519531 346.554688 159.320312 C 346.613281 154.082031 346.179688 147.410156 345.628906 141.28125 C 344.773438 132.765625 342.886719 125.210938 340.417969 117.910156 C 340.839844 118.84375 341.261719 119.769531 341.6875 120.703125 C 343.269531 124.582031 344.886719 128.453125 346.179688 132.4375 C 346.527344 133.425781 346.855469 134.410156 347.203125 135.386719 C 347.554688 136.355469 347.808594 137.359375 348.101562 138.335938 C 348.394531 139.328125 348.6875 140.304688 348.972656 141.289062 L 349.40625 142.769531 L 349.628906 143.511719 L 349.820312 144.257812 C 350.28125 146.269531 350.765625 148.300781 351.257812 150.382812 C 351.523438 151.421875 351.664062 152.492188 351.863281 153.566406 C 352.050781 154.644531 352.242188 155.742188 352.433594 156.859375 C 352.5625 157.617188 352.691406 158.378906 352.8125 159.160156 C 352.917969 159.945312 353.019531 160.746094 353.121094 161.542969 C 353.339844 163.144531 353.546875 164.785156 353.773438 166.4375 C 353.894531 167.265625 353.953125 168.097656 354.015625 168.933594 C 354.097656 169.761719 354.167969 170.59375 354.238281 171.425781 C 354.300781 172.253906 354.375 173.089844 354.453125 173.90625 C 354.515625 174.734375 354.609375 175.554688 354.617188 176.367188 C 354.773438 181.054688 355.144531 184.503906 355.335938 183.621094 C 355.722656 181.984375 356.085938 180.121094 356.519531 177.976562 C 356.449219 172.761719 355.949219 166.21875 355.25 160.222656 Z M 114.808594 320.460938 L 112.925781 319.398438 C 112.292969 319.039062 111.664062 318.683594 111.058594 318.292969 L 107.390625 315.96875 L 105.542969 314.816406 C 104.945312 314.414062 104.359375 313.980469 103.769531 313.582031 C 92.738281 306.035156 82.660156 297.074219 73.835938 287.003906 L 75.347656 288.257812 L 77.035156 289.671875 C 77.320312 289.90625 77.589844 290.140625 77.890625 290.375 L 78.769531 291.046875 C 79.921875 291.945312 81.097656 292.847656 82.273438 293.746094 L 84.019531 295.109375 L 85.816406 296.40625 C 87.019531 297.273438 88.21875 298.152344 89.410156 299.050781 L 90.300781 299.71875 L 91.234375 300.347656 C 91.84375 300.78125 92.457031 301.210938 93.078125 301.636719 C 94.15625 302.390625 95.714844 303.367188 97.046875 304.167969 L 100.941406 306.3125 C 102.25 307.011719 103.535156 307.765625 104.882812 308.386719 L 108.871094 310.324219 C 109.535156 310.652344 110.191406 310.980469 110.867188 311.300781 L 112.898438 312.183594 C 114.261719 312.785156 115.613281 313.390625 116.976562 313.988281 L 117.988281 314.445312 L 119.027344 314.855469 L 121.085938 315.699219 C 122.476562 316.261719 123.847656 316.84375 125.222656 317.4375 C 126.617188 317.964844 128.015625 318.507812 129.40625 319.070312 C 129.9375 319.277344 130.660156 319.519531 131.4375 319.769531 C 131.828125 319.890625 132.234375 320.011719 132.632812 320.136719 C 133.039062 320.246094 133.429688 320.359375 133.816406 320.460938 C 144.449219 323.546875 155.347656 325.492188 166.414062 326.410156 C 168.410156 326.546875 170.40625 326.6875 172.386719 326.832031 C 174.375 326.902344 176.328125 326.921875 178.289062 326.972656 L 179.101562 326.996094 L 178.636719 327.042969 C 177.597656 327.179688 176.5625 327.359375 175.523438 327.421875 C 173.433594 327.59375 171.367188 327.757812 169.28125 327.921875 C 168.667969 327.976562 168.054688 328 167.449219 328.007812 L 165.601562 328.054688 L 161.910156 328.140625 L 160.992188 328.171875 L 160.527344 328.175781 L 160.40625 328.183594 L 160.351562 328.183594 L 160.113281 328.175781 L 158.246094 328.128906 L 154.507812 328.015625 C 151.984375 328.007812 149.59375 327.714844 147.144531 327.550781 L 145.339844 327.40625 C 144.71875 327.359375 144.113281 327.316406 143.5 327.222656 L 139.851562 326.746094 L 136.703125 326.332031 C 135.65625 326.175781 134.613281 325.960938 133.582031 325.777344 C 128.101562 324.785156 122.71875 323.496094 117.394531 321.949219 C 116.554688 321.433594 115.679688 320.949219 114.808594 320.460938 Z M 304.015625 270.71875 L 302.277344 273.320312 C 301.683594 274.183594 301.144531 275.074219 300.5 275.902344 C 299.246094 277.582031 298.007812 279.25 296.765625 280.925781 C 296.410156 281.417969 296.019531 281.894531 295.621094 282.367188 L 294.4375 283.785156 L 292.0625 286.597656 L 291.472656 287.3125 L 291.179688 287.660156 L 291.109375 287.746094 L 291.09375 287.769531 L 291.085938 287.769531 L 291.074219 287.789062 L 290.921875 287.960938 L 289.640625 289.335938 L 287.09375 292.074219 C 285.414062 293.953125 283.632812 295.570312 281.894531 297.289062 L 280.582031 298.566406 C 280.140625 298.992188 279.710938 299.421875 279.234375 299.820312 L 276.46875 302.25 L 274.074219 304.351562 C 273.261719 305.035156 272.414062 305.671875 271.582031 306.328125 C 262.828125 313.304688 253.3125 319.261719 243.316406 324.273438 L 241.003906 325.449219 L 238.648438 326.515625 L 233.941406 328.65625 C 232.355469 329.304688 230.75 329.9375 229.144531 330.578125 C 228.347656 330.894531 227.570312 331.234375 226.757812 331.542969 L 224.328125 332.382812 C 222.703125 332.9375 221.078125 333.542969 219.460938 334.070312 C 217.816406 334.5625 216.167969 335.054688 214.527344 335.554688 C 213.695312 335.789062 212.890625 336.066406 212.0625 336.265625 L 209.570312 336.894531 L 207.074219 337.515625 C 206.246094 337.707031 205.421875 337.957031 204.578125 338.105469 C 202.554688 338.511719 200.566406 338.953125 198.527344 339.339844 C 193.769531 340.128906 188.949219 340.699219 184.132812 341.042969 C 182.785156 340.921875 181.453125 340.800781 180.140625 340.65625 C 179.769531 340.621094 179.265625 340.570312 178.703125 340.527344 C 178.132812 340.5 177.476562 340.457031 176.792969 340.371094 C 175.429688 340.222656 173.933594 340.074219 172.664062 339.929688 C 171.886719 339.84375 171.082031 339.75 170.292969 339.660156 C 169.5 339.585938 168.71875 339.417969 167.925781 339.308594 C 166.335938 339.03125 164.746094 338.769531 163.144531 338.496094 L 161.953125 338.289062 L 160.761719 338.019531 L 158.398438 337.472656 L 156.039062 336.921875 C 155.246094 336.714844 154.441406 336.566406 153.6875 336.316406 C 150.214844 335.277344 146.816406 334.363281 143.566406 333.179688 C 142.753906 332.917969 141.941406 332.640625 141.121094 332.367188 C 140.308594 332.105469 139.488281 331.847656 138.710938 331.535156 C 137.125 330.9375 135.535156 330.359375 133.957031 329.796875 C 133.4375 329.589844 132.640625 329.339844 131.878906 328.984375 C 131.113281 328.640625 130.351562 328.285156 129.824219 328.042969 C 129.746094 328 129.667969 327.957031 129.582031 327.921875 C 137.773438 329.503906 146.117188 330.4375 154.398438 330.6875 C 155.609375 330.714844 156.820312 330.734375 158.039062 330.765625 C 159.253906 330.792969 160.472656 330.84375 161.683594 330.792969 C 164.113281 330.734375 166.527344 330.707031 168.945312 330.628906 C 171.367188 330.457031 173.792969 330.285156 176.234375 330.109375 C 178.667969 329.859375 181.105469 329.503906 183.578125 329.175781 C 189.65625 328.175781 195.765625 326.988281 201.785156 325.347656 C 205.585938 324.847656 209.253906 323.953125 212.847656 323.132812 C 213.359375 323.023438 213.851562 322.882812 214.378906 322.738281 C 214.871094 322.597656 215.398438 322.449219 215.90625 322.296875 C 216.9375 322.003906 217.984375 321.714844 219.027344 321.421875 C 221.128906 320.886719 223.222656 320.160156 225.363281 319.546875 C 226.402344 319.242188 227.421875 318.941406 228.417969 318.648438 C 229.417969 318.335938 230.378906 317.964844 231.339844 317.621094 C 232.289062 317.28125 233.214844 316.929688 234.140625 316.597656 C 234.605469 316.417969 235.054688 316.246094 235.519531 316.082031 L 236.195312 315.820312 L 236.863281 315.535156 C 238.625 314.757812 240.351562 313.988281 242.074219 313.21875 L 243.363281 312.632812 L 244.625 311.992188 C 245.46875 311.558594 246.308594 311.121094 247.140625 310.679688 C 248.316406 310.054688 249.535156 309.460938 250.71875 308.800781 C 251.902344 308.113281 253.09375 307.429688 254.296875 306.738281 C 254.902344 306.390625 255.5 306.046875 256.109375 305.699219 L 257.019531 305.179688 L 257.917969 304.617188 C 259.113281 303.867188 260.320312 303.113281 261.546875 302.347656 C 262.160156 301.972656 262.777344 301.585938 263.414062 301.210938 C 264.011719 300.804688 264.617188 300.390625 265.238281 299.976562 C 266.464844 299.15625 267.703125 298.328125 268.964844 297.488281 C 269.277344 297.28125 269.585938 297.074219 269.914062 296.867188 C 270.210938 296.648438 270.527344 296.417969 270.832031 296.199219 C 271.460938 295.757812 272.078125 295.308594 272.714844 294.859375 C 273.976562 293.945312 275.277344 293.078125 276.539062 292.128906 C 278.527344 290.597656 280.558594 289.128906 282.535156 287.605469 C 284.457031 286.015625 286.382812 284.4375 288.214844 282.808594 C 294.109375 277.3125 299.539062 271.789062 304.65625 265.902344 C 305.890625 264.398438 307.136719 262.886719 308.382812 261.382812 C 309.019531 260.640625 309.574219 259.828125 310.160156 259.046875 C 310.75 258.253906 311.335938 257.457031 311.917969 256.664062 C 312.476562 255.894531 313.050781 255.125 313.585938 254.34375 C 310.707031 259.980469 307.527344 265.453125 304.015625 270.71875 Z M 329.578125 188.796875 C 329.566406 189.1875 329.542969 189.578125 329.53125 189.972656 C 329.34375 197.046875 328.675781 204.132812 327.527344 211.140625 C 327.105469 212.484375 326.636719 213.824219 326.207031 215.179688 L 325.410156 217.582031 C 325.152344 218.371094 324.824219 219.15625 324.519531 219.949219 C 323.925781 221.515625 323.316406 223.089844 322.714844 224.660156 C 322.175781 225.949219 321.582031 227.21875 321.027344 228.484375 C 320.464844 229.738281 319.9375 231.015625 319.359375 232.242188 C 318.769531 233.460938 318.199219 234.664062 317.664062 235.855469 C 317.390625 236.453125 317.136719 237.039062 316.878906 237.617188 C 316.757812 237.914062 316.636719 238.207031 316.507812 238.492188 C 316.378906 238.777344 316.246094 239.0625 316.117188 239.347656 C 315.566406 240.53125 314.742188 242.105469 313.835938 243.789062 C 313.601562 244.207031 313.367188 244.636719 313.152344 245.0625 C 312.910156 245.492188 312.632812 245.902344 312.375 246.324219 C 311.875 247.160156 311.363281 247.992188 310.878906 248.785156 C 308.070312 253.542969 304.050781 258.804688 301.632812 262.308594 C 301.207031 262.9375 300.816406 263.59375 300.332031 264.199219 C 299.851562 264.8125 299.359375 265.433594 298.898438 266.050781 C 297.921875 267.285156 296.921875 268.554688 295.882812 269.792969 C 294.792969 270.992188 293.695312 272.203125 292.605469 273.429688 L 290.921875 275.238281 L 289.167969 276.984375 L 286.054688 280.050781 C 285.007812 281.070312 283.894531 282.015625 282.820312 282.992188 L 281.195312 284.445312 C 280.636719 284.929688 280.105469 285.429688 279.527344 285.886719 C 278.378906 286.796875 277.230469 287.71875 276.089844 288.636719 L 274.351562 290.011719 C 273.761719 290.453125 273.148438 290.875 272.5625 291.304688 C 271.351562 292.15625 270.132812 293.011719 268.921875 293.875 C 268.316406 294.308594 267.6875 294.714844 267.046875 295.109375 C 266.40625 295.5 265.777344 295.890625 265.128906 296.292969 C 265.007812 296.363281 264.894531 296.433594 264.78125 296.503906 C 302.183594 270.398438 327.242188 227.851562 329.4375 179.316406 C 329.464844 179.714844 329.480469 180.101562 329.507812 180.5 C 329.570312 182.074219 329.542969 183.664062 329.558594 185.246094 C 329.566406 186.039062 329.566406 186.835938 329.570312 187.628906 C 329.570312 188.003906 329.59375 188.402344 329.578125 188.796875 Z M 247.996094 35.695312 C 250.34375 37.121094 252.523438 38.796875 254.769531 40.347656 C 255.324219 40.746094 255.886719 41.140625 256.433594 41.53125 C 256.976562 41.945312 257.527344 42.359375 258.058594 42.773438 C 259.144531 43.589844 260.210938 44.402344 261.304688 45.195312 C 261.886719 45.636719 262.492188 46.058594 263.050781 46.527344 C 263.597656 46.992188 264.132812 47.445312 264.636719 47.882812 C 264.917969 48.125 265.1875 48.367188 265.4375 48.59375 C 265.328125 48.523438 265.214844 48.453125 265.117188 48.378906 C 264.410156 47.902344 263.710938 47.433594 263.042969 46.992188 C 250.285156 38.351562 236.128906 31.640625 221 27.199219 C 219.917969 26.851562 218.832031 26.507812 217.742188 26.164062 C 216.679688 25.800781 215.589844 25.546875 214.507812 25.253906 C 214.265625 25.191406 214.023438 25.132812 213.78125 25.070312 C 222.105469 26.066406 230.386719 27.75 238.304688 29.90625 C 241.613281 31.71875 244.832031 33.640625 247.996094 35.695312 Z M 247.996094 35.695312 "/></g><g clip-rule="nonzero" clip-path="url(#cf6302b723)"><path style=" stroke:none;fill-rule:nonzero;fill:#a6a6a6;fill-opacity:1;" d="M 4.140625 199.335938 C 3.898438 197.839844 3.65625 196.359375 3.414062 194.875 C 3.214844 193.386719 3.078125 191.882812 2.902344 190.390625 C 2.789062 189.351562 2.667969 188.277344 2.546875 187.222656 C 2.425781 186.160156 2.386719 185.117188 2.28125 184.148438 C 2.140625 182.632812 1.996094 181.085938 1.855469 179.546875 C 1.769531 178.773438 1.753906 178 1.71875 177.222656 C 1.691406 176.445312 1.667969 175.667969 1.632812 174.898438 C 1.5625 173.359375 1.488281 171.839844 1.417969 170.335938 C 1.417969 168.820312 1.410156 167.316406 1.382812 165.855469 C 1.246094 161.492188 1.3125 160.566406 0.761719 162.164062 C 0.621094 162.613281 0.507812 163.273438 0.363281 163.9375 C 0.328125 165.121094 0.3125 166.308594 0.273438 167.402344 C 0.230469 168.5 0.15625 169.582031 0.121094 170.6875 L 0.128906 173.964844 C 0.144531 175.054688 0.144531 176.152344 0.144531 177.257812 C 0.15625 177.8125 0.144531 178.363281 0.171875 178.910156 C 0.207031 179.464844 0.242188 180.015625 0.277344 180.570312 C 0.59375 186.203125 1.261719 191.933594 2.410156 196.769531 C 2.789062 198.308594 3.171875 199.941406 3.5625 201.589844 C 3.671875 202.003906 3.75 202.414062 3.871094 202.835938 L 4.21875 204.070312 C 4.453125 204.886719 4.699219 205.707031 4.925781 206.519531 C 5.039062 205.941406 5.039062 205.253906 4.890625 204.15625 C 4.734375 203.0625 4.492188 201.554688 4.140625 199.335938 Z M 4.140625 199.335938 "/></g><path style=" stroke:none;fill-rule:nonzero;fill:#a6a6a6;fill-opacity:1;" d="M 95.300781 322.734375 C 94.363281 322.148438 93.0625 321.320312 91.167969 320.117188 C 89.894531 319.3125 88.617188 318.519531 87.347656 317.722656 C 86.101562 316.882812 84.882812 316.003906 83.640625 315.148438 C 82.78125 314.550781 81.902344 313.929688 81.019531 313.324219 C 80.144531 312.71875 79.332031 312.054688 78.53125 311.5 C 77.308594 310.59375 76.046875 309.691406 74.796875 308.769531 C 74.164062 308.328125 73.566406 307.835938 72.964844 307.351562 C 72.359375 306.859375 71.761719 306.367188 71.15625 305.882812 C 69.964844 304.921875 68.777344 303.972656 67.601562 303.035156 C 66.460938 302.027344 65.320312 301.046875 64.207031 300.105469 C 60.84375 297.316406 60.179688 296.667969 61.023438 298.128906 C 61.285156 298.523438 61.691406 299.058594 62.089844 299.605469 C 62.960938 300.410156 63.84375 301.210938 64.628906 301.964844 C 65.425781 302.71875 66.195312 303.496094 67.007812 304.246094 L 69.480469 306.40625 C 70.300781 307.125 71.128906 307.84375 71.960938 308.5625 C 72.382812 308.921875 72.78125 309.292969 73.214844 309.640625 C 73.65625 309.976562 74.097656 310.316406 74.535156 310.652344 C 78.980469 314.136719 83.722656 317.414062 88.117188 319.746094 C 89.507812 320.480469 90.996094 321.265625 92.496094 322.0625 C 92.878906 322.253906 93.25 322.46875 93.632812 322.660156 L 94.789062 323.203125 C 95.574219 323.566406 96.335938 323.929688 97.105469 324.292969 C 96.75 323.816406 96.230469 323.351562 95.300781 322.734375 Z M 95.300781 322.734375 "/><path style=" stroke:none;fill-rule:nonzero;fill:#1f6534;fill-opacity:1;" d="M 218.566406 170.621094 L 192.742188 106.332031 L 174.953125 62.050781 C 174.53125 61.003906 173.1875 60.761719 172.328125 61.316406 L 172.324219 61.027344 L 172.15625 61.441406 C 171.96875 61.601562 171.816406 61.800781 171.714844 62.050781 L 153.925781 106.332031 L 154 106.515625 L 99.371094 242.132812 C 106.59375 234.644531 115.535156 227.753906 126.089844 221.5625 C 133.597656 217.160156 142.070312 213.023438 151.417969 209.195312 L 173.386719 154.773438 L 189.132812 193.96875 C 218.148438 182.742188 253.472656 163.457031 264.871094 126.378906 C 265.441406 124.519531 265.941406 122.722656 266.367188 120.957031 C 256.410156 145.421875 232.46875 162.425781 218.566406 170.621094 "/><g clip-rule="nonzero" clip-path="url(#2d71e1940f)"><path style=" stroke:none;fill-rule:nonzero;fill:#000000;fill-opacity:1;" d="M 290.898438 127.140625 C 290.027344 148.816406 279.023438 170.273438 261.523438 185.355469 C 252.84375 192.835938 242.964844 199.355469 232.394531 205.078125 C 228.5 207.183594 224.507812 209.183594 220.449219 211.078125 C 220.410156 211.097656 220.371094 211.113281 220.332031 211.132812 C 213.550781 214.300781 206.574219 217.1875 199.523438 219.824219 C 189.875 223.433594 180.089844 226.585938 170.464844 229.363281 C 146.789062 236.195312 121.273438 248.8125 101.5625 264.886719 C 121.109375 247.117188 147.621094 232.867188 172.292969 225.0625 C 204.332031 214.929688 238.0625 200.589844 261.980469 178.808594 C 284.453125 158.339844 295.296875 127.054688 286.558594 99.3125 C 277.820312 71.570312 248.292969 49.472656 216.398438 49.679688 C 216.398438 49.679688 246.136719 56.09375 259.195312 79.195312 C 270.835938 99.800781 271.863281 112.222656 267.121094 129.46875 C 254.328125 176.015625 203.558594 195.863281 173.859375 206.378906 C 144.160156 216.894531 114.183594 233.019531 97.214844 257.449219 C 89.042969 269.210938 83.964844 285.726562 82.632812 289.320312 C 102.355469 264.339844 131.390625 248.355469 170.464844 234.894531 C 180.535156 231.425781 191.179688 228.546875 201.453125 224.628906 L 223.441406 279.371094 L 262.253906 279.371094 L 234.226562 209.605469 C 244.105469 204.128906 253.347656 197.933594 261.523438 190.886719 C 280.511719 174.523438 291.855469 150.652344 290.898438 127.140625 "/></g></g></svg>